<svg width="32" height="32" viewBox="0 0 32 32" fill="none" xmlns="http://www.w3.org/2000/svg">
<path d="M26.3336 14.6667V13.3334C26.3336 8.30509 26.3336 5.79095 24.7715 4.22884C23.2093 2.66675 20.6952 2.66675 15.6669 2.66675H14.3337C9.30543 2.66675 6.7913 2.66675 5.22921 4.22883C3.66711 5.79091 3.66709 8.30504 3.66705 13.3333L3.66699 18.6667C3.66695 23.695 3.66694 26.2091 5.22898 27.7713C6.79107 29.3333 9.30531 29.3334 14.3336 29.3334" stroke="white" stroke-width="1.5" stroke-linecap="round" stroke-linejoin="round"/>
<path d="M9.66699 9.33325H20.3336M9.66699 15.9999H20.3336" stroke="white" stroke-width="1.5" stroke-linecap="round"/>
<path d="M17.667 27.7691V29.3334H19.2315C19.7774 29.3334 20.0503 29.3334 20.2957 29.2318C20.5411 29.1301 20.7341 28.9371 21.1201 28.5513L27.5515 22.1193C27.9155 21.7553 28.0975 21.5733 28.1949 21.377C28.3801 21.0034 28.3801 20.5649 28.1949 20.1913C28.0975 19.9949 27.9155 19.8129 27.5515 19.4489C27.1874 19.0849 27.0054 18.9029 26.809 18.8055C26.4354 18.6205 25.9967 18.6205 25.6231 18.8055C25.4269 18.9029 25.2447 19.0849 24.8807 19.4489L18.4493 25.8809C18.0634 26.2667 17.8703 26.4597 17.7687 26.705C17.667 26.9505 17.667 27.2233 17.667 27.7691Z" stroke="white" stroke-width="1.5" stroke-linejoin="round"/>
</svg>
